<svg xmlns="http://www.w3.org/2000/svg" width="20" height="20" viewBox="0 0 20 20" fill="none"><g transform="translate(4.166 4.166)"><path d="M0 4.834C-0.552 4.834 -1 5.282 -1 5.834C-1 6.386 -0.552 6.834 0 6.834L0 5.834L0 4.834ZM11.668 6.834C12.22 6.834 12.668 6.386 12.668 5.834C12.668 5.282 12.22 4.834 11.668 4.834L11.668 5.834L11.668 6.834ZM6.834 0C6.834 -0.552 6.386 -1 5.834 -1C5.282 -1 4.834 -0.552 4.834 0L5.834 0L6.834 0ZM4.834 11.668C4.834 12.22 5.282 12.668 5.834 12.668C6.386 12.668 6.834 12.22 6.834 11.668L5.834 11.668L4.834 11.668ZM0 5.834L0 6.834L11.668 6.834L11.668 5.834L11.668 4.834L0 4.834L0 5.834ZM5.834 0L4.834 0L4.834 11.668L5.834 11.668L6.834 11.668L6.834 0L5.834 0Z" fill="#000" fill-rule="nonzero"/></g></svg>